<svg id="brakets-layers" xmlns="http://www.w3.org/2000/svg" viewBox="0 0 73.71102 95.64639">
  <defs>
    <style>
      .cls-1 {
        fill: none;
        stroke: #000;
        stroke-miterlimit: 10;
      }
    </style>
  </defs>
  <title>codePic</title>
  <g id="brakets">
    <g id="Layer_2" data-name="Layer 2">
      <g id="Layer_3" data-name="Layer 3">
        <path class="cls-1" d="M45.44291,13.19182s-17.84784,0-18.30546,18.15291S27.29,53.00619,25.91709,55.29437s-6.55946,4.88146-7.32218,4.88146,8.23745,2.44073,8.23745,7.16964-.76273,24.86494,1.37291,29.28873c1.1794,2.443,4.67714,6.25519,8.6744,8.41784,2.86567,1.55042,6.37755,3.16422,8.56324,2.41288" transform="translate(-18.04903 -12.6009)"/>
      </g>
    </g>
    <path class="cls-1" d="M63.23868,13.09962c15.60986,1.11863,17.985,12.34541,19.02118,17.28549,1.37629,6.56158-1.70171,15.02234,1.06783,22.88182.3663,1.03951,1.92038,5.44971,4.88145,6.40691.54792.17712,3.05669.85431,3.05092.87556l-.00139.00048c-.06357.00437-5.241,2.161-7.32079,4.76814-.56109.70337-.41524.836-.92323,10.5793-.17073,3.27464-.37431,6.84849-.29713,11.84488l0,.00247c.04745,3.07514.21721,14.07656-5.92637,18.26488-3.59922,2.45374-8.252,1.81007-11.07475,1.06735" transform="translate(-18.04903 -12.6009)"/>
  </g>
</svg>
