<svg xmlns="http://www.w3.org/2000/svg" viewBox="0 0 103.91665 130.75698">
  <defs>
    <style>
      .cls-1 {
        fill: none;
        stroke: #000;
        stroke-miterlimit: 10;
      }
    </style>
  </defs>
  <title>Asset 1</title>
  <g id="Layer_2" data-name="Layer 2">
    <g id="Layer_3" data-name="Layer 3">
      <g>
        <path class="cls-1" d="M66.91135.5S90.371,2.38515,91.41833,23.95967s.41892,29.534,1.46623,31.4192,4.39869,7.12168,6.70276,8.79738a5.39257,5.39257,0,0,0,4.18923,1.20225s-8.79738,2.56805-10.05414,6.54782-2.09461,24.507-1.67569,30.79081-3.35138,18.22313-8.169,20.94613S74.033,129.51956,66.91135,130.257"/>
        <path class="cls-1" d="M37.42819.5s-24.507,0-25.13536,24.9259.20946,29.74351-1.67569,32.88543S1.6103,65.01409.563,65.01409s11.31091,3.35138,11.31091,9.84468S10.8266,109.001,13.75906,115.07534s16.96637,17.17583,23.66913,14.87175"/>
      </g>
    </g>
  </g>
</svg>
